<?xml version="1.0" encoding="utf-8"?>
<!-- Generator: Adobe Illustrator 23.0.1, SVG Export Plug-In . SVG Version: 6.00 Build 0)  -->
<svg version="1.1" id="图层_1" xmlns="http://www.w3.org/2000/svg" xmlns:xlink="http://www.w3.org/1999/xlink" x="0px" y="0px"
	 viewBox="0 0 1984.3 2834.6" style="enable-background:new 0 0 1984.3 2834.6;" xml:space="preserve">
<style type="text/css">
	.st0{fill:#FFFFFF;}
</style>
<g>
	<path d="M1232.6,1253.7c-30.5-9.2-53.9-27-65.4-57.5c-5.5-14.7-10.4-29.9-13.6-45.3c-9.4-46-9.4-91.3,12.9-134.5
		c5.8-11.3,12.2-21.8,21.5-30.4c13.9-12.8,30.1-22.1,46.4-31.1c21.7-11.9,44.8-18.8,69.6-19.5c36.9-1.1,73.6,1,110.2,5.4
		c46.8,5.6,81.9,29.2,105.5,69.7c20.3,34.8,25.7,72.8,21.5,112.4c-3,28.9-12.4,55.3-33.8,76c-9.5,9.1-19.3,17.9-29.3,26.4
		c-11.8,10-25.1,17.7-39.8,22.5c-37.5,12.3-76.1,18.2-115.5,18.2c-4,0-6,1.3-7.9,4.9c-13.7,26.4-35.8,40.9-65,45
		c-2.6,0.4-6.8-0.3-8-2c-1.2-1.6,0.2-5.4,1.1-8.1c3.4-9.7,7.5-19.3,10.4-29.1c1.7-5.4,1.6-11.4,2.4-17.3
		C1247.4,1257.4,1240,1255.9,1232.6,1253.7z M1447.7,1231.7c-2.2-4.4-4-8.1-5.9-11.8c0.3-0.2,0.7-0.3,1-0.5
		c1.9,3.7,3.8,7.3,6.2,11.9c6.2-4.1,12.2-8.1,18.1-12l-0.1,0.1c3.4-2.1,6.9-4.3,10.7-6.7c-5.6-8.9-10.9-17.3-16.2-25.6
		c0.4-0.2,0.7-0.5,1.1-0.7c5.3,8.1,10.5,16.1,16.2,24.8c2.8-2.5,5.4-4.8,8.2-7.3c-5.4-9.4-10.7-18.4-15.9-27.4
		c0.4-0.3,0.7-0.5,1.1-0.7c5.2,8.8,10.4,17.6,15.7,26.4c6.9-5.4,6.9-5.4,2.7-12.1c-4.9-7.9-9.9-15.8-14.8-23.6
		c0.4-0.2,0.8-0.5,1.1-0.7c6.2,9.4,12.3,18.8,18.5,28.2c6.7-5.4,6.7-5.9,2.6-12.7c-4.3-7.1-8.5-14.3-12.8-21.4
		c0.5-0.3,0.9-0.5,1.3-0.8c5.3,8.7,10.5,17.5,15.8,26.2c4.3-3.2,4.4-6.1,1.4-10.2c-5.3-7-9.9-14.4-14.7-21.7
		c0.4-0.3,0.8-0.5,1.2-0.8c5.7,8.3,11.3,16.7,17.4,25.6c1.5-2.5,3.2-4.5,4-6.9c0.6-1.8,0.7-4.4-0.2-6.1c-2.1-3.9-4.9-7.5-6.5-11.8
		c2.8,4.1,5.7,8.3,8.8,12.8c3.1-3.9,5-7.2,1.3-11.8c-2.7-3.3-4.7-7.1-6.2-11.2c3.2,4.5,6.3,9,9.8,14.1c2.1-5.9,4.2-11,5.8-16.3
		c0.4-1.4-0.2-3.3-1-4.6c-4.5-7.4-9.1-14.8-13.7-22.1c-0.7-1.1-1.3-2.1-2-3.2c0.4-0.2,0.8-0.5,1.2-0.7c5.5,8.5,11,17,17.4,27
		c-0.4-10.9,7.9-19.7,1.2-30c0.5,0.4,0.9,0.9,1.3,1.4c0.4,0.5,0.8,1.1,1.2,1.7c5.1-10.8-3.2-17.7-6.2-26.3c2.3,3.7,4.6,7.5,7.3,11.8
		c2.1-7.6-1.2-13-3.5-18.8c1,1.3,1.9,2.5,2.8,3.8c0-6.5,0.5-12.9-3.6-18.5c-6.9-9.4-13.5-19-19.5-29.1c6.7,8.4,13.4,16.8,20.5,25.7
		c-2.7-12.9-7.2-24.4-13.1-35.5c-13.9-25.9-34.6-44.9-61.3-56.6c-57.4-25.1-116.7-31.1-177.1-12.8c-41.2,12.5-74.5,36.7-96.4,74.7
		c-15.7,27.4-19.5,57.4-19,88.3c0.5,28.8,6.7,56.1,22.3,80.8c7.3,11.6,16.4,21.4,27.5,29.4c4.7,3.4,9.9,6.3,15,9.2
		c1,0.6,2.4,0.4,2.2,0.4c6.5,2.8,11.9,5.2,17.3,7.6c0.3-0.4,0.5-0.7,0.7-1.1c-0.5-1.3-1.1-2.6-2.2-5.1c5.7,7,6.2,7.2,14.3,7.3
		c-0.2-1.1-0.4-2.2-0.6-3.2c2.2,5.8,7.4,3.5,12,4.5c0.3,20.2-5.1,38.9-15,58.2c5.7-2.1,10.2-3.8,15-5.6c-1.1-2.2-2-3.9-2.8-5.6
		c0.2-0.2,0.4-0.3,0.6-0.5c1.2,1.6,2.4,3.1,3.9,5c2.2-1.2,4.3-2.5,6.6-3.8c-0.6-1.6-1.2-2.9-1.7-4.2c0.2-0.1,0.3-0.3,0.5-0.4
		c0.8,1,1.6,2,2.8,3.4c2.6-2.1,5.1-4.1,7.8-6.2c-2.8-5.1-5.4-9.9-8-14.6c0.3-0.1,0.6-0.3,0.9-0.5c2.6,4.4,5.2,8.9,7.8,13.3
		c0.4,0,0.8,0.1,1-0.1c8.4-8.2,7.5-5.2,2.5-15c-1-2-2.2-3.9-2.4-6.5c2.5,4.3,5,8.5,7.5,12.7c5.7-5.2,6.3-7.3,3.4-15.1
		c1.4,1.6,2.3,2.6,3.6,4.1c0.7-1.9,1.5-3.3,1.6-4.8c0.4-5.2,4.6-5,7.9-5.3c3.4-0.4,6.9,0.3,12,0.6c-5.1-8.1-9.5-15.1-13.9-22.1
		c0.4-0.3,0.7-0.5,1.1-0.8c3.5,5.2,7.2,10.2,10.4,15.6c4.3,7.1,4.1,7.2,13.1,5.8c-4.7-7.5-9.3-14.9-14-22.2c0.4-0.2,0.8-0.5,1.2-0.8
		c1.1,1.6,2.1,3.3,3.2,4.9c3.1,4.8,6.1,9.6,9.2,14.3c2.9,4.4,2.9,4.4,9.2,3.3c-3.7-5.7-7.2-11.1-10.7-16.5c0.3-0.2,0.7-0.4,1-0.6
		c2.3,3.5,4.7,7,7,10.5c5.2,7.9,5.2,7.9,15.6,5.4c-5.2-7.8-10.2-15.4-15.3-23c0.3-0.3,0.7-0.5,1-0.7c4.2,6.1,8.4,12.1,12.5,18.2
		c4.5,6.7,5.2,6.9,13.9,4.1c-3.3-5-6.6-9.9-9.8-14.8c0.3-0.2,0.7-0.5,1-0.7c2.1,3,4.2,6,6.2,9.1c5.3,8,5.3,8,15.2,4.8
		c-5.5-9.1-10.9-18.1-16.4-27.1c0.4-0.3,0.8-0.5,1.1-0.8c1.3,2.1,2.6,4.1,3.9,6.2c3.4,5.7,7.3,11.3,10.2,17.2
		c2.2,4.3,4.8,5.1,9.1,3.8s8.9-2,13.8-3c-3.2-5.3-6-10.1-8.9-14.8c0.3-0.3,0.7-0.5,1-0.7c1.7,2.8,3.5,5.6,5.3,8.4
		c4.5,7.1,4.5,7.1,13.3,4c-3.9-6.4-7.8-12.5-11.6-18.7c0.3-0.2,0.7-0.4,1-0.6c2.9,4.4,5.7,8.7,8.5,13.1c4.3,6.9,4.5,7,12.5,2.6
		c-1-1.8-2-3.7-3-5.6c-1-1.8-2-3.6-2.1-5.9c2.1,3.7,4.2,7.4,6.8,11.9c3.4-1.7,6.9-3.3,10.4-5l0,0
		C1440.2,1233.8,1443.6,1232.7,1447.7,1231.7z M1422.3,946.5c52.8,16.1,88.6,50.3,108.9,101.3
		C1518.8,999.1,1478.9,954.9,1422.3,946.5z M1168.7,1025.3c-3.6,6.2-4.7,13.9-6.1,21c-2.1,11-3.5,22.2-4.5,33.5
		c2.4-9.6,4.2-19.4,7.4-28.7c3.3-9.5,7.3-19,12.3-27.7c4.9-8.6,11-16.6,17.6-24.1c6.7-7.6,14.5-14.2,21.8-21.2
		C1197.9,990.7,1180.3,1005.1,1168.7,1025.3z M1242.6,1248.5c-7.9-3.4-16-6.2-23.3-10.4c-7.6-4.3-14.9-9.5-21.3-15.5
		c-6.5-6.1-12.4-13.1-17.4-20.5c-4.9-7.2-8.9-15.2-12.3-23.3s-5.5-16.7-7.9-24C1163.1,1193.4,1196,1243.6,1242.6,1248.5z
		 M1496.3,1199.5c-26.8,29.3-61,44.8-99,53.1C1418.3,1258.8,1492.1,1219.1,1496.3,1199.5z M1312.5,1266.2c-1.3,0.5-3.2,0.7-3.6,1.6
		c-7.9,16.2-21.3,26.9-36.1,36.3c-0.6,0.4-1.1,0.9-1.7,1.4C1290.2,1298.5,1303.9,1285.5,1312.5,1266.2z M1185,996.4
		c21.7-18.7,45.6-33.8,71.2-46.4C1229.9,961.4,1204.7,974.6,1185,996.4z M1497.6,1199c5.8-2.8,21.2-26.8,22.8-34.6
		C1512.9,1175.7,1505.3,1187.2,1497.6,1199z M1358.1,1257.5c0,0.3,0.1,0.6,0.1,0.9c12.6-1.1,25.3-2.2,37.9-3.3
		c0-0.8-0.1-1.6-0.2-2.4C1383.4,1254.3,1370.8,1256,1358.1,1257.5z M1528.6,1142.7c3.3-3.6,8-27.6,6.9-37.8
		C1533,1118.4,1530.7,1130.7,1528.6,1142.7z M1155.7,1059.7c-0.4,0-0.9-0.1-1.3-0.1c-1,10.6-2,21.3-3,31.9c0.4,0,0.7-0.1,1-0.1
		C1153.5,1080.9,1154.7,1070.3,1155.7,1059.7z M1524.1,1167.2c0.4,0.2,0.8,0.3,1.2,0.5c4-7.7,6.7-15.8,8.1-24.6
		C1530.3,1151.1,1527.2,1159.2,1524.1,1167.2z M1318.7,1261.9c-0.1,0.2-0.1,0.5-0.1,0.7c6.4,0,12.7,0,19.1,0c0-0.2,0-0.5,0-0.7
		C1331.3,1261.9,1325,1261.9,1318.7,1261.9z M1261.5,1259.7c-0.7-0.1-1.4-0.2-2.2-0.3c-0.5,4.4-0.9,8.7-1.4,13.1
		c0.3,0,0.7,0.1,1.1,0.1C1259.8,1268.3,1260.6,1264,1261.5,1259.7z"/>
	<path class="st0" d="M1452.2,1193.1c-0.7,0.4-1.4,0.9-2.1,1.3c5.6,8.1,11.1,16.1,16.7,24.1c-6,3.9-11.9,7.9-18.1,12
		c-2.4-4.6-4.3-8.2-6.2-11.9c-0.3,0.2-0.7,0.3-1,0.5c1.8,3.7,3.7,7.4,5.9,11.8c-3.9,1.3-7.3,2.5-10.7,3.6c-3.2-6-6.5-12.1-9.8-18.2
		c-0.5,0.4-1.1,0.7-1.6,1c3.9,5.7,7.7,11.4,11.5,17.2c-3.5,1.7-6.9,3.3-10.4,5c-2.6-4.5-4.7-8.2-6.8-11.9c0.1,2.3,1.1,4.1,2.1,5.9
		c1,1.8,2,3.7,3,5.6c-8,4.4-8.2,4.3-12.5-2.6c-2.8-4.4-5.7-8.7-8.5-13.1c-0.3,0.2-0.7,0.4-1,0.6c3.8,6.2,7.7,12.4,11.6,18.7
		c-8.8,3-8.8,3-13.3-4c-1.7-2.8-3.5-5.6-5.3-8.4c-0.3,0.3-0.7,0.5-1,0.7c2.8,4.8,5.7,9.5,8.9,14.8c-4.9,1-9.4,1.7-13.8,3
		c-4.3,1.3-6.9,0.6-9.1-3.8c-2.9-6-6.7-11.5-10.2-17.2c-1.3-2.1-2.6-4.1-3.9-6.2c-0.4,0.3-0.8,0.5-1.1,0.8c5.4,9,10.9,18,16.4,27.1
		c-9.9,3.2-9.9,3.2-15.2-4.8c-2-3.1-4.1-6.1-6.2-9.1c-0.3,0.2-0.7,0.5-1,0.7c3.2,4.9,6.5,9.8,9.8,14.8c-8.7,2.8-9.3,2.6-13.9-4.1
		c-4.2-6.1-8.3-12.1-12.5-18.2c-0.3,0.3-0.7,0.5-1,0.7c5,7.6,10.1,15.2,15.3,23c-10.4,2.5-10.4,2.5-15.6-5.4c-2.3-3.5-4.7-7-7-10.5
		c-0.3,0.2-0.7,0.4-1,0.6c3.5,5.4,7,10.8,10.7,16.5c-6.2,1.1-6.3,1.1-9.2-3.3c-3.1-4.7-6.1-9.5-9.2-14.3c-1.1-1.6-2.1-3.3-3.2-4.9
		c-0.4,0.2-0.8,0.5-1.2,0.8c4.6,7.4,9.3,14.7,14,22.2c-9,1.4-8.8,1.3-13.1-5.8c-3.2-5.3-6.9-10.4-10.4-15.6
		c-0.4,0.3-0.7,0.5-1.1,0.8c4.4,7,8.8,14,13.9,22.1c-5.1-0.3-8.6-0.9-12-0.6c-3.3,0.3-7.5,0.1-7.9,5.3c-0.1,1.5-1,2.9-1.6,4.8
		c-1.3-1.5-2.2-2.5-3.6-4.1c2.9,7.8,2.4,9.9-3.4,15.1c-2.5-4.3-5-8.5-7.5-12.7c0.1,2.5,1.4,4.5,2.4,6.5c4.9,9.8,5.9,6.7-2.5,15
		c-0.2,0.2-0.6,0.1-1,0.1c-2.5-4.4-5.2-8.8-7.8-13.3c-0.3,0.1-0.6,0.3-0.9,0.5c2.6,4.7,5.2,9.5,8,14.6c-2.7,2.2-5.2,4.2-7.8,6.2
		c-1.2-1.5-2-2.4-2.8-3.4c-0.2,0.1-0.3,0.3-0.5,0.4c0.6,1.4,1.1,2.6,1.7,4.2c-2.3,1.3-4.4,2.5-6.6,3.8c-1.5-2-2.7-3.5-3.9-5
		c-0.2,0.2-0.4,0.3-0.6,0.5c0.9,1.7,1.7,3.4,2.8,5.6c-4.8,1.8-9.3,3.5-15,5.6c9.9-19.2,15.3-38,15-58.2c-4.5-1-9.8,1.3-12-4.5
		c0.2,1.1,0.4,2.1,0.6,3.2c-8.1,0-8.6-0.3-14.3-7.3c1.1,2.6,1.6,3.8,2.2,5.1c-0.3,0.4-0.5,0.7-0.7,1.1c-5.5-2.4-10.9-4.8-17.3-7.6
		c0.2,0-1.2,0.2-2.2-0.4c-5.1-2.9-10.2-5.8-15-9.2c-11.1-8-20.2-17.9-27.5-29.4c-15.5-24.6-21.8-52-22.3-80.8
		c-0.6-30.9,3.2-61,19-88.3c21.9-38,55.1-62.2,96.4-74.7c60.4-18.2,119.7-12.3,177.1,12.8c26.7,11.7,47.4,30.7,61.3,56.6
		c5.9,11.1,10.4,22.7,13.1,35.5c-7.1-8.9-13.8-17.3-20.5-25.7c6,10.2,12.6,19.7,19.5,29.1c4.1,5.6,3.6,12,3.6,18.5
		c-1-1.3-1.9-2.5-2.8-3.8c2.3,5.8,5.6,11.2,3.5,18.8c-2.6-4.4-5-8.1-7.3-11.8c3,8.6,11.4,15.6,6.2,26.3c-0.5-0.7-0.8-1.2-1.2-1.7
		s-0.9-0.9-1.3-1.4c6.7,10.3-1.6,19.2-1.2,30c-6.4-10-11.9-18.5-17.4-27c-0.4,0.2-0.8,0.5-1.2,0.7c0.7,1.1,1.3,2.1,2,3.2
		c4.6,7.4,9.3,14.7,13.7,22.1c0.8,1.3,1.4,3.3,1,4.6c-1.6,5.2-3.7,10.4-5.8,16.3c-3.6-5.1-6.7-9.6-9.8-14.1
		c1.5,4.1,3.5,7.9,6.2,11.2c3.8,4.6,1.9,8-1.3,11.8c-3.1-4.5-5.9-8.6-8.8-12.8c1.7,4.3,4.4,7.9,6.5,11.8c0.9,1.6,0.8,4.2,0.2,6.1
		c-0.7,2.3-2.5,4.4-4,6.9c-6-8.9-11.7-17.2-17.4-25.6c-0.4,0.3-0.8,0.5-1.2,0.8c4.9,7.3,9.5,14.7,14.7,21.7c3,4,2.8,7-1.4,10.2
		c-5.3-8.8-10.5-17.5-15.8-26.2c-0.5,0.3-0.9,0.5-1.3,0.8c4.3,7.2,8.5,14.3,12.8,21.4c4.2,6.9,4.1,7.4-2.6,12.7
		c-6.2-9.4-12.3-18.8-18.5-28.2c-0.4,0.2-0.8,0.5-1.1,0.7c4.9,7.9,9.9,15.8,14.8,23.6c4.2,6.7,4.2,6.7-2.7,12.1
		c-5.2-8.8-10.5-17.6-15.7-26.4c-0.4,0.3-0.7,0.5-1.1,0.7c5.2,9,10.5,18,15.9,27.4c-2.8,2.5-5.4,4.9-8.2,7.3
		c-5.6-8.6-10.9-16.7-16.2-24.8c-0.4,0.2-0.7,0.5-1.1,0.7c5.3,8.3,10.5,16.7,16.2,25.6c-3.8,2.4-7.2,4.5-10.7,6.7
		C1462,1210.5,1457.2,1202,1452.2,1193.1z M1454.9,1222.6c0.4-0.2,0.8-0.4,1.1-0.6c-3.3-5.9-6.7-11.9-10.1-17.8
		c-0.4,0.2-0.7,0.4-1.1,0.6C1448.1,1210.8,1451.5,1216.7,1454.9,1222.6z"/>
	<path class="st0" d="M1422.3,946.5c56.6,8.4,96.4,52.5,108.9,101.3C1510.9,996.8,1475.1,962.6,1422.3,946.5z"/>
	<path class="st0" d="M1195.4,999.2c-6.5,7.5-12.7,15.5-17.6,24.1c-5,8.7-9,18.2-12.3,27.7c-3.2,9.3-5,19.1-7.4,28.7
		c1-11.2,2.4-22.4,4.5-33.5c1.4-7.2,2.6-14.9,6.1-21c11.6-20.1,29.2-34.5,48.5-47.1C1209.9,985.1,1202.1,991.7,1195.4,999.2z"/>
	<path class="st0" d="M1168.2,1178.8c3.4,8,7.4,16,12.3,23.3c5,7.4,10.9,14.4,17.4,20.5c6.4,5.9,13.7,11.1,21.3,15.5
		c7.3,4.2,15.5,7,23.3,10.4c-46.5-4.9-79.4-55.1-82.1-93.7C1162.7,1162.1,1164.9,1170.7,1168.2,1178.8z"/>
	<path class="st0" d="M1496.3,1199.5c-4.2,19.6-78,59.3-99,53.1C1435.3,1244.2,1469.4,1228.7,1496.3,1199.5z"/>
	<path class="st0" d="M1272.8,1304.1c14.7-9.4,28.2-20,36.1-36.3c0.5-0.9,2.4-1.1,3.6-1.6c-8.5,19.3-22.2,32.3-41.4,39.3
		C1271.6,1305,1272.2,1304.5,1272.8,1304.1z"/>
	<path class="st0" d="M1185,996.4c19.6-21.8,44.8-35,71.2-46.4C1230.7,962.6,1206.7,977.7,1185,996.4z"/>
	<path class="st0" d="M1497.6,1199c7.8-11.8,15.4-23.3,22.8-34.6C1518.8,1172.2,1503.3,1196.1,1497.6,1199z"/>
	<path class="st0" d="M1396.1,1255.2c-12.6,1.1-25.3,2.2-37.9,3.3c0-0.3-0.1-0.6-0.1-0.9c12.6-1.6,25.2-3.3,37.8-4.9
		C1396,1253.5,1396.1,1254.3,1396.1,1255.2z"/>
	<path class="st0" d="M1528.6,1142.7c2.2-12,4.4-24.3,6.9-37.8C1536.6,1115.1,1531.9,1139.1,1528.6,1142.7z"/>
	<path class="st0" d="M1151.5,1091.5c1-10.6,2-21.3,3-31.9c0.4,0,0.9,0.1,1.3,0.1c-1.2,10.6-2.3,21.1-3.4,31.7
		C1152.1,1091.5,1151.8,1091.5,1151.5,1091.5z"/>
	<path class="st0" d="M1525.3,1167.7c-0.4-0.2-0.8-0.3-1.2-0.5c3.1-8.1,6.2-16.1,9.3-24.1C1532,1151.9,1529.3,1160,1525.3,1167.7z"
		/>
	<path class="st0" d="M1337.6,1262.6c-6.4,0-12.7,0-19.1,0c0.1-0.2,0.1-0.5,0.1-0.7c6.4,0,12.7,0,19.1,0
		C1337.7,1262.1,1337.7,1262.4,1337.6,1262.6z"/>
	<path class="st0" d="M1257.9,1272.5c0.5-4.4,0.9-8.7,1.4-13.1c0.7,0.1,1.4,0.2,2.2,0.3c-0.8,4.3-1.7,8.6-2.5,12.9
		C1258.6,1272.6,1258.2,1272.5,1257.9,1272.5z"/>
	<path d="M1466.9,1219c-5.5-8.2-11-16.2-16.6-24.2c0.7-0.4,1.4-0.9,2.1-1.3C1457.3,1202,1462.1,1210.5,1466.9,1219
		C1466.9,1219,1467,1218.9,1466.9,1219z"/>
	<path d="M1446,1204.2c3.3,5.9,6.7,11.9,10.1,17.8c-0.4,0.2-0.8,0.4-1.1,0.6c-3.4-5.9-6.8-11.9-10.2-17.8
		C1445.1,1204.6,1445.5,1204.4,1446,1204.2z"/>
	<path d="M1436.9,1234.9c-3.8-5.7-7.7-11.5-11.4-17.2c0.5-0.4,1.1-0.7,1.6-1C1430.3,1222.7,1433.6,1228.8,1436.9,1234.9
		L1436.9,1234.9z"/>
</g>
</svg>
