<?xml version="1.0" encoding="utf-8"?>
<!-- Generator: Adobe Illustrator 16.0.0, SVG Export Plug-In . SVG Version: 6.00 Build 0)  -->
<!DOCTYPE svg PUBLIC "-//W3C//DTD SVG 1.1//EN" "http://www.w3.org/Graphics/SVG/1.1/DTD/svg11.dtd">
<svg version="1.1" id="图层_1" xmlns="http://www.w3.org/2000/svg" xmlns:xlink="http://www.w3.org/1999/xlink" x="0px" y="0px"
	 width="612px" height="792px" viewBox="0 0 612 792" enable-background="new 0 0 612 792" xml:space="preserve">
<g>
	<path d="M193.455,259.008c4.331,1.453,6.287,5.169,6.314,11.372c2.432-1.229,5.002-1.677,7.601-0.978
		c7.013,1.9,11.344,6.566,13.188,13.467c1.816,6.817-1.593,12.35-5.979,14.585c-0.14,0.084-0.224,0.251-0.391,0.419
		c2.934,0.894,5.029,2.766,6.762,5.085c1.928,2.626,3.129,5.588,3.688,8.801c1.537,9.053-4.219,16.987-13.104,17.91
		c-1.761,0.167-3.577-0.224-5.365-0.335c0.196,0.587,0.503,1.257,0.699,1.956c1.815,6.175-1.956,13.188-8.466,15.702
		c-6.874,2.655-16.038,0.308-20.788-5.336c-0.419-0.475-0.782-0.978-1.229-1.509c-0.14,0.224-0.224,0.335-0.279,0.447
		c-2.096,4.666-5.001,6.119-9.975,4.917c-2.04-0.475-4.079-1.006-6.008-1.816c-2.905-1.201-5.42-2.934-6.23-6.287
		c-0.195-0.782-0.279-1.621-0.419-2.542c-0.363,0.224-0.643,0.363-0.922,0.531c-0.503,0.335-1.006,0.671-1.509,1.006
		c-4.471,2.906-9.276,4.08-14.11,1.397c-2.794-1.564-5.364-3.771-7.544-6.119c-3.632-3.884-2.989-8.634-1.732-13.3
		c0.14-0.475,0.336-0.922,0.531-1.481c-4.387-0.363-7.152-2.85-9.276-6.203c-2.794-4.415-4.693-9.165-5.783-14.277
		c-1.593-7.432,1.732-13.467,8.885-15.982c2.207-0.782,4.471-1.509,6.762-2.263c-0.95-2.18-0.922-4.554,0.168-6.929
		c0.111-0.224,0.111-0.531,0.14-0.811c0.307-2.961,1.871-5.001,4.498-6.259c3.269-1.564,6.733-2.179,10.31-1.732
		c2.348,0.279,4.61,0.922,6.985,1.425c0.811-4.945,3.996-7.656,8.913-8.466c2.291-0.391,4.61-0.671,6.93-0.754
		c6.426-0.196,11.064,2.989,13.327,9.081C183.62,259.539,187.812,257.136,193.455,259.008z M219.021,283.205
		c0.95,4.275-0.279,8.187-2.934,11.735c1.425-0.782,2.822-2.766,3.409-5.029c1.229-4.778,0.224-9.081-2.934-12.853
		c-2.599-5.169-10.366-8.243-15.424-6.119c-0.614,0.251-1.201,0.615-1.509,0.782c2.068-0.112,4.415-0.531,6.734-0.335
		c3.911,0.335,7.152,2.207,9.667,5.252c0.14,0.168,0.363,0.28,0.531,0.419C217.401,279.097,218.546,281.081,219.021,283.205z
		 M146.041,335.146c1.313-0.14,2.542-0.95,3.8-1.425c1.452-0.559,2.989-0.978,4.442-1.593c1.033-0.447,1.48-0.475,1.509,0.894
		c0.027,3.045,1.593,5.337,4.19,7.209c-0.056-0.447-0.083-0.671-0.083-0.587c0.894,0.615,1.928,1.369,2.989,2.124
		c0.14-0.14,0.251-0.279,0.392-0.419c-1.006-1.676-1.984-3.353-2.99-5.029c0.084-0.056,0.195-0.111,0.279-0.167
		c0.811,1.313,1.621,2.626,2.403,3.939c1.201,1.956,1.369,2.012,3.884,1.509c-1.174-1.816-2.319-3.604-3.465-5.364
		c0.084-0.056,0.168-0.112,0.251-0.168c1.006,1.509,2.012,2.99,2.99,4.499c0.754,1.146,2.85,1.09,3.576-0.083
		c0.056-0.112,0.224-0.14,0.363-0.168c0.168-0.028,0.392,0.056,0.503-0.028c1.229-0.95,2.431-1.928,3.604-2.934
		c0.894-0.754,1.732-1.593,2.626-2.431c1.118,2.04,2.18,4.023,3.27,5.979c0.14-0.056,0.251-0.084,0.363-0.14
		c-0.028-0.308-0.084-0.587-0.112-0.894c0.95,2.57,2.99,3.8,5.532,4.582c-1.48-2.319-2.934-4.61-4.414-6.901
		c0.084-0.083,0.195-0.14,0.279-0.195c1.006,1.509,2.012,3.045,3.018,4.554c0.279,0.419,0.614,0.838,0.782,1.313
		c0.671,1.732,1.983,2.151,3.884,1.788c-1.788-2.766-3.576-5.477-5.337-8.187c0.112-0.056,0.195-0.14,0.308-0.196
		c1.453,2.179,2.905,4.359,4.331,6.538c1.425,2.179,1.396,2.179,4.19,1.369c-0.587-0.922-1.146-1.816-1.732-2.682
		c-0.559-0.866-1.173-1.705-1.76-2.571c0.084-0.056,0.195-0.14,0.279-0.195c1.229,1.76,2.431,3.521,3.716,5.393
		c0.643-0.196,1.313-0.419,2.207-0.727c-1.257-1.732-2.431-3.353-3.632-4.974c0.084-0.083,0.168-0.14,0.252-0.195
		c1.257,1.621,2.515,3.269,4.023,5.225c1.788-1.173,3.855-2.067,5.252-3.576c1.342-1.453,2.124-3.465,2.935-5.337
		c0.922-2.095-0.308-3.939-0.979-5.839c-0.224-0.643-0.363-1.313-0.559-1.984c0.671-0.056,1.313-0.112,2.096-0.167
		c-0.084-0.224-0.196-0.531-0.336-0.838c1.006,1.648,2.487,1.537,4.304,1.341c-0.895-0.978-1.677-1.788-2.432-2.626
		c0.084-0.056,0.14-0.14,0.224-0.224c0.699,0.727,1.342,1.537,2.096,2.18c0.392,0.335,1.062,0.643,1.537,0.531
		c3.101-0.671,5.812-2.04,7.655-4.75c0.279-0.419,0.224-1.09,0.308-1.621l-0.028,0.028c0.279-0.056,0.727-0.028,0.811-0.195
		c1.285-2.85,2.347-5.756,1.956-8.969c-0.028-0.363,0.335-0.811,0.251-1.146c-0.363-1.202-0.782-2.403-1.285-3.577
		c-0.279-0.67-0.754-1.229-0.95-1.984c0.503,0.671,0.979,1.341,1.677,2.291c-1.648-6.286-6.538-7.264-11.512-7.991
		c-0.503-1.062-0.14-1.621,0.727-2.208c5.309-3.632,7.404-10.757,4.974-16.457c-2.347-5.532-8.941-8.801-15.172-7.544
		c-1.062,0.223-2.096,0.615-3.269,0.95c0-0.447-0.112-0.727,0-0.95c1.369-2.962,0.726-5.672-1.286-8.047
		c-2.151-2.542-4.973-3.381-8.187-2.71c-2.989,0.615-5.364,2.263-7.376,4.499c-0.251,0.307-0.559,0.587-0.866,0.866
		c-0.056,0.056-0.195,0.028-0.363,0.028c-0.084-0.167-0.224-0.363-0.251-0.559c-0.615-5.421-4.163-8.019-9.025-9.137
		c-6.873-1.593-14.025,1.872-17.183,8.214c-0.476,0.95-0.895,1.146-1.9,0.783c-3.632-1.313-7.376-1.956-11.232-0.95
		c-4.246,1.118-7.46,4.61-7.739,8.717c-0.084,1.481,0.447,2.99,0.727,4.471c0.084,0.391,0.308,0.727,0.503,1.229
		c-0.503,0.084-0.811,0.168-1.117,0.14c-6.762-0.503-11.064,3.073-14.055,8.633c-1.899,3.549-2.291,7.432-1.564,11.4
		c0.112,0.586,0.308,1.229,0.671,1.648c2.654,3.102,5.141,6.398,8.131,9.137c2.905,2.654,3.716,2.654,8.187,2.151
		c-0.447,0.81-0.755,1.397-1.118,1.956c-4.526,6.622-2.291,15.507,4.834,19.223c0.14,0.084,0.308,0.14,0.643,0.279
		c-2.124-3.521-4.136-6.845-6.147-10.17c0.112-0.083,0.224-0.14,0.336-0.223c0.251,0.419,0.53,0.81,0.782,1.229
		c1.648,2.71,3.269,5.42,4.917,8.131c0.979,1.648,0.979,1.648,3.102,1.593c-0.14-0.475-0.279-0.922-0.447-1.341l0,0
		C141.738,337.018,144.085,335.229,146.041,335.146z M175.602,259.65c-0.671-1.816-3.604-3.492-6.873-3.772
		c-5.393-0.475-10.115,1.006-13.831,5.085C161.268,255.627,169.818,255.404,175.602,259.65z M209.717,273.313
		c3.884,2.124,6.622,5.113,7.516,9.528c0.866,4.358-0.167,8.326-2.598,12.014C221.229,288.233,218.798,276.583,209.717,273.313z
		 M187.98,346.294c5.28,2.179,13.719,0.167,16.708-6.175C199.826,344.143,194.992,348.082,187.98,346.294z M166.157,344.282
		c3.325,1.509,7.293,0.084,8.187-2.878C171.634,342.354,168.84,343.36,166.157,344.282z M143.246,263.813
		c-4.554-0.978-10.617,1.369-12.293,4.694C134.446,265.574,138.664,264.596,143.246,263.813z M166.493,342.829
		c-5.756-0.419-7.32-1.229-10.729-5.672C156.267,341.656,162.61,344.45,166.493,342.829z M122.012,282.282
		c-3.576,1.062-7.46,7.935-7.32,13.216C116.312,288.513,117.486,286.417,122.012,282.282z M124.778,313.269
		c-2.318-2.264-4.806-4.694-6.789-6.622C119.497,309.021,121.817,311.648,124.778,313.269z M223.687,312.542
		c-0.754,7.46-0.754,7.46-5.309,13.299C222.178,323.998,224.526,318.158,223.687,312.542z M145.621,337.884
		c-2.821-0.419-5.896-0.866-8.913-1.313C139.531,338.387,142.632,338.666,145.621,337.884z M196.362,264.233
		c-1.593-3.437-7.739-4.554-11.399-2.04C189.125,260.656,192.981,260.852,196.362,264.233z M133.076,268.452
		c-2.264,1.034-3.241,2.822-2.767,5.393C131.26,271.972,132.239,270.128,133.076,268.452z M113.854,291.81
		c1.117-2.347,2.291-4.89,3.437-7.292C115.306,286.222,113.909,289.128,113.854,291.81z M128.41,321.818
		c-1.118,2.235-0.168,4.135,0.838,6.286C128.969,325.87,128.69,323.858,128.41,321.818z M150.79,265.825
		c-1.648-1.397-3.576-1.648-5.839-1.313C147.046,264.987,148.918,265.434,150.79,265.825z M145.175,336.431
		c2.207-0.028,4.246-0.587,6.146-1.649c0,0-0.056-0.14-0.084-0.195C149.226,335.202,147.214,335.816,145.175,336.431z
		 M171.802,341.153c1.341-0.419,2.682-0.838,3.297-2.347C174.009,339.588,172.892,340.371,171.802,341.153z M182.95,344.394
		c-0.057,0.112-0.112,0.195-0.14,0.307c1.48,0.615,2.934,1.202,4.414,1.816c0.056-0.14,0.084-0.251,0.14-0.391
		C185.884,345.54,184.431,344.953,182.95,344.394z"/>
	<path d="M111.953,348.585c-1.285-4.861,1.9-8.857,6.482-8.047c1.173,0.196,2.291,0.922,3.381,1.509c0.53,0.279,0.838,0.643,1.396,0
		c2.683-2.961,8.522-3.381,11.064,1.705c0.531,1.062,0.866,2.235,1.285,3.353c5.142-0.559,7.32,4.638,4.945,8.606
		c-1.341,2.319-3.269,3.772-6.091,3.884c-0.027,0.475-0.056,0.866-0.084,1.285c-0.167,3.521-2.431,6.37-5.644,7.097
		c-3.073,0.699-6.427-0.922-8.047-3.967c-0.531-0.978-0.922-1.369-1.983-0.531c-0.447,0.335-1.397,0.251-2.012,0.056
		c-1.342-0.419-2.599-0.978-3.856-1.593c-4.526-2.207-6.035-8.773-0.335-11.819C112.261,349.563,112.093,349.088,111.953,348.585z
		 M117.038,357.973c0.084-0.056,0.195-0.112,0.279-0.167c0.671,1.062,1.342,2.123,2.068,3.129c0.223,0.308,0.782,0.671,1.033,0.587
		c0.922-0.335,1.174,0.14,1.593,0.811c0.531,0.922,1.313,1.704,1.983,2.542c0.112-0.084,0.224-0.168,0.336-0.251
		c-0.14-0.279-0.308-0.531-0.476-0.811c1.229,1.341,2.431,2.571,4.61,1.788c-0.168-0.335-0.335-0.643-0.475-0.978
		c0.056-0.028,0.084-0.056,0.14-0.084c0.308,0.335,0.587,0.67,1.09,1.202c0.419-0.503,0.782-0.95,1.229-1.481
		c0.056-0.028,0.643,0.056,0.81-0.168c0.279-0.363,0.336-0.922,0.476-1.425c0.586,0.196,1.48-1.341,1.033-2.458
		c-0.14-0.391-0.419-0.783-0.698-1.313c0.391,0.196,0.587,0.308,0.866,0.447c-0.084-0.531-0.308-1.006-0.224-1.425
		c0.056-0.363,0.419-0.643,0.727-1.062c-0.559-0.838-1.174-1.816-1.816-2.766c0.056-0.028,0.14-0.084,0.195-0.14
		c0.447,0.615,0.923,1.229,1.342,1.872c1.257,1.844,3.185,1.9,4.526,0.083c2.012-2.71,1.033-5.56-1.732-6.985
		c-0.671-0.363-1.453-0.559-2.18-0.838c0.028-2.85-1.033-4.861-3.129-5.616c-3.186-1.146-5.058,0.698-6.678,3.269
		c-0.559-0.503-1.034-0.922-1.509-1.341c-1.984-1.676-4.415-2.04-6.314-0.866c-2.767,1.705-2.711,5.672,0.111,6.762
		c0.252,0.112,0.447,0.419,0.671,0.615c-0.279,0.223-0.503,0.503-0.782,0.643c-1.565,0.782-2.851,1.844-3.354,3.632
		c-0.419,1.509-0.335,3.018,0.671,4.247c0.866,1.09,1.677,2.347,3.521,1.9c0.614-0.14,1.397,0.531,2.096,0.811
		c0.084-0.167,0.168-0.335,0.251-0.503C118.575,360.432,117.821,359.23,117.038,357.973z M136.848,348.138
		c2.18,1.564,3.438,3.492,3.018,6.203C141.263,351.519,139.754,348.361,136.848,348.138z M114.16,343.556
		c-1.173,0.475-1.815,2.04-1.341,3.521C113.267,345.958,113.741,344.646,114.16,343.556z M111.339,355.822
		c-0.587,1.509-0.308,2.738,0.726,3.939C111.842,358.42,111.59,357.219,111.339,355.822z M124.219,343.388
		c0.979-0.643,2.04-1.369,3.13-2.096C125.756,341.237,124.722,341.963,124.219,343.388z"/>
	<path fill="#FFFFFF" d="M214.746,314.386c-0.14,0.083-0.279,0.195-0.419,0.279c1.509,2.04,3.045,4.079,4.582,6.119
		c-0.084,0.559-0.028,1.202-0.308,1.621c-1.844,2.71-4.554,4.08-7.655,4.75c-0.447,0.112-1.146-0.196-1.537-0.531
		c-0.754-0.643-1.396-1.453-2.096-2.18c-0.083,0.056-0.14,0.14-0.224,0.224c0.783,0.811,1.537,1.648,2.432,2.626
		c-1.816,0.196-3.325,0.308-4.303-1.341c0.111,0.308,0.251,0.643,0.335,0.838c-0.782,0.056-1.425,0.112-2.096,0.167
		c0.168,0.671,0.335,1.341,0.559,1.984c0.671,1.9,1.9,3.744,0.979,5.84c-0.811,1.872-1.593,3.884-2.934,5.336
		c-1.397,1.509-3.465,2.403-5.253,3.576c-1.509-1.956-2.767-3.576-4.023-5.225c-0.084,0.084-0.168,0.14-0.252,0.196
		c1.174,1.62,2.375,3.241,3.633,4.973c-0.923,0.279-1.565,0.503-2.208,0.727c-1.285-1.844-2.486-3.632-3.716-5.393
		c-0.084,0.056-0.195,0.14-0.279,0.195c0.587,0.866,1.174,1.705,1.76,2.571c0.587,0.866,1.146,1.76,1.732,2.682
		c-2.766,0.811-2.766,0.811-4.19-1.369c-1.425-2.179-2.878-4.358-4.331-6.538c-0.111,0.056-0.195,0.14-0.308,0.196
		c1.761,2.71,3.521,5.42,5.337,8.187c-1.9,0.363-3.213-0.028-3.884-1.788c-0.168-0.475-0.503-0.894-0.782-1.313
		c-1.006-1.509-2.012-3.045-3.018-4.554c-0.084,0.084-0.195,0.14-0.279,0.196c1.48,2.319,2.934,4.61,4.414,6.901
		c-2.542-0.782-4.582-2.04-5.532-4.582c0.028,0.307,0.084,0.587,0.112,0.894c-0.14,0.056-0.252,0.084-0.363,0.14
		c-1.09-1.984-2.151-3.939-3.27-5.979c-0.894,0.81-1.731,1.648-2.626,2.431c-1.174,1.006-2.403,1.984-3.604,2.934
		c-0.111,0.112-0.335,0-0.503,0.028c-0.111,0.028-0.308,0.083-0.363,0.167c-0.698,1.173-2.821,1.229-3.576,0.083
		c-1.006-1.509-1.983-2.989-2.989-4.498c-0.084,0.056-0.168,0.112-0.252,0.167c1.146,1.76,2.291,3.548,3.465,5.365
		c-2.543,0.503-2.71,0.447-3.884-1.509c-0.782-1.313-1.593-2.626-2.375-3.94c-0.084,0.056-0.195,0.112-0.279,0.168
		c1.006,1.676,1.983,3.353,2.989,5.029c-0.14,0.14-0.251,0.279-0.391,0.419c-1.034-0.727-2.096-1.481-2.99-2.124
		c0-0.056,0.028,0.167,0.084,0.587c-2.599-1.872-4.135-4.135-4.19-7.209c-0.028-1.369-0.476-1.341-1.509-0.894
		c-1.453,0.615-2.962,1.034-4.443,1.593c-1.285,0.475-2.486,1.285-3.8,1.425c-2.039,0.224-4.387,2.012-6.119-0.67
		c-1.089-2.04-2.207-4.079-3.297-6.119c-0.167,0.084-0.307,0.168-0.446,0.251c1.257,1.956,2.515,3.884,3.771,5.84
		c0.14,0.447,0.279,0.894,0.419,1.369c-2.123,0.028-2.123,0.028-3.102-1.593c-1.648-2.71-3.269-5.42-4.917-8.131
		c-0.252-0.419-0.531-0.838-0.782-1.229c-0.112,0.083-0.224,0.14-0.336,0.223c2.012,3.325,4.023,6.65,6.147,10.17
		c-0.335-0.14-0.503-0.195-0.643-0.279c-7.125-3.688-9.36-12.601-4.834-19.223c0.363-0.531,0.671-1.146,1.118-1.956
		c-4.471,0.503-5.31,0.531-8.187-2.151c-2.962-2.738-5.477-6.035-8.131-9.137c-0.363-0.419-0.559-1.062-0.671-1.648
		c-0.727-3.968-0.335-7.823,1.564-11.4c2.99-5.56,7.293-9.108,14.055-8.633c0.307,0,0.614-0.084,1.117-0.14
		c-0.224-0.503-0.419-0.866-0.503-1.229c-0.279-1.481-0.811-2.99-0.727-4.471c0.252-4.107,3.493-7.6,7.739-8.717
		c3.856-1.006,7.601-0.363,11.232,0.95c1.006,0.363,1.425,0.167,1.9-0.783c3.157-6.342,10.31-9.807,17.183-8.214
		c4.862,1.118,8.41,3.716,9.025,9.137c0.027,0.195,0.167,0.391,0.251,0.559c0.196-0.028,0.308,0.028,0.363-0.028
		c0.279-0.279,0.587-0.559,0.866-0.866c2.012-2.235,4.387-3.884,7.376-4.499c3.241-0.643,6.035,0.168,8.187,2.71
		c2.012,2.375,2.655,5.057,1.286,8.047c-0.084,0.224,0,0.503,0,0.95c1.173-0.335,2.207-0.726,3.269-0.95
		c6.23-1.257,12.797,2.012,15.172,7.544c2.431,5.728,0.335,12.825-4.974,16.457c-0.866,0.586-1.229,1.146-0.727,2.207
		c4.974,0.727,9.863,1.705,11.512,7.991c-0.698-0.95-1.174-1.621-1.677-2.292c0.168,0.754,0.671,1.341,0.95,1.984
		c0.503,1.146,0.922,2.375,1.285,3.577c0.084,0.335-0.308,0.782-0.251,1.146c0.419,3.241-0.643,6.119-1.956,8.969
		c-0.084,0.14-0.531,0.14-0.811,0.196C217.429,318.801,216.06,316.649,214.746,314.386z M211.505,315.057
		c-0.111,0.083-0.195,0.14-0.308,0.224c1.342,1.9,2.711,3.771,4.052,5.672c0.111-0.084,0.195-0.14,0.308-0.224
		C214.188,318.829,212.846,316.957,211.505,315.057z"/>
	<path fill="#FFFFFF" d="M168.729,255.878c3.269,0.28,6.23,1.956,6.873,3.772c-5.812-4.219-14.334-3.995-20.704,1.313
		C158.614,256.885,163.336,255.404,168.729,255.878z"/>
	<path fill="#FFFFFF" d="M217.233,282.841c-0.894-4.415-3.632-7.404-7.516-9.528c9.108,3.269,11.512,14.92,4.918,21.542
		C217.066,291.167,218.099,287.172,217.233,282.841z"/>
	<path fill="#FFFFFF" d="M187.98,346.294c7.041,1.788,11.874-2.151,16.708-6.175C201.67,346.461,193.232,348.473,187.98,346.294z"/>
	<path fill="#FFFFFF" d="M216.59,277.029c-0.224-0.111-0.419-0.223-0.559-0.391c-2.515-3.045-5.756-4.917-9.667-5.252
		c-2.291-0.196-4.639,0.223-6.734,0.335c0.308-0.167,0.895-0.531,1.509-0.782C206.197,268.815,213.964,271.86,216.59,277.029
		C216.59,277.029,216.563,277.058,216.59,277.029z"/>
	<path fill="#FFFFFF" d="M166.157,344.282c2.683-0.95,5.477-1.928,8.187-2.878C173.45,344.394,169.483,345.791,166.157,344.282z"/>
	<path fill="#FFFFFF" d="M216.563,277.058c3.129,3.772,4.163,8.075,2.905,12.853c-0.587,2.263-1.983,4.247-3.408,5.029
		c2.654-3.548,3.911-7.46,2.934-11.735C218.518,281.081,217.401,279.097,216.563,277.058
		C216.563,277.058,216.59,277.029,216.563,277.058z"/>
	<path fill="#FFFFFF" d="M143.246,263.813c-4.582,0.783-8.801,1.789-12.293,4.694C132.629,265.183,138.693,262.836,143.246,263.813z
		"/>
	<path fill="#FFFFFF" d="M166.493,342.829c-3.884,1.621-10.227-1.173-10.729-5.672C159.173,341.6,160.738,342.41,166.493,342.829z"
		/>
	<path fill="#FFFFFF" d="M122.012,282.282c-4.555,4.135-5.728,6.231-7.32,13.216C114.552,290.217,118.436,283.344,122.012,282.282z"
		/>
	<path fill="#FFFFFF" d="M124.778,313.269c-2.961-1.621-5.28-4.275-6.789-6.622C119.972,308.574,122.459,311.033,124.778,313.269z"
		/>
	<path fill="#FFFFFF" d="M223.687,312.542c0.811,5.588-1.509,11.428-5.309,13.299C222.933,320.03,222.933,320.03,223.687,312.542z"
		/>
	<path fill="#FFFFFF" d="M145.621,337.884c-2.989,0.782-6.091,0.503-8.913-1.313C139.726,337.018,142.8,337.465,145.621,337.884z"/>
	<path fill="#FFFFFF" d="M196.362,264.233c-3.381-3.353-7.236-3.577-11.399-2.04C188.594,259.679,194.769,260.796,196.362,264.233z"
		/>
	<path fill="#FFFFFF" d="M133.076,268.452c-0.866,1.677-1.816,3.521-2.767,5.393C129.864,271.274,130.841,269.514,133.076,268.452z"
		/>
	<path fill="#FFFFFF" d="M113.854,291.81c0.056-2.654,1.425-5.588,3.437-7.292C116.172,286.92,114.971,289.463,113.854,291.81z"/>
	<path fill="#FFFFFF" d="M128.41,321.818c0.279,2.04,0.531,4.051,0.838,6.286C128.242,325.953,127.292,324.053,128.41,321.818z"/>
	<path fill="#FFFFFF" d="M150.79,265.825c-1.872-0.419-3.744-0.838-5.839-1.313C147.242,264.205,149.142,264.457,150.79,265.825z"/>
	<path fill="#FFFFFF" d="M151.35,334.782c-1.9,1.062-3.968,1.621-6.147,1.649c2.012-0.615,4.023-1.229,6.035-1.844
		C151.266,334.643,151.35,334.782,151.35,334.782z"/>
	<path fill="#FFFFFF" d="M171.802,341.153c1.09-0.782,2.179-1.564,3.297-2.347C174.512,340.314,173.171,340.762,171.802,341.153z"/>
	<path fill="#FFFFFF" d="M187.198,346.518c-1.481-0.615-2.935-1.202-4.415-1.816c0.056-0.112,0.111-0.195,0.14-0.307
		c1.48,0.587,2.962,1.146,4.442,1.732C187.337,346.238,187.281,346.378,187.198,346.518z"/>
	<path fill="#FFFFFF" d="M119.106,362.192c-0.698-0.307-1.509-0.95-2.095-0.81c-1.845,0.419-2.654-0.838-3.521-1.9
		c-1.006-1.229-1.09-2.738-0.671-4.247c0.475-1.788,1.76-2.85,3.353-3.632c0.308-0.14,0.531-0.419,0.782-0.643
		c-0.223-0.224-0.391-0.503-0.67-0.615c-2.822-1.09-2.878-5.057-0.112-6.762c1.872-1.173,4.303-0.838,6.314,0.866
		c0.476,0.391,0.95,0.838,1.509,1.341c1.593-2.57,3.493-4.415,6.678-3.269c2.096,0.754,3.157,2.766,3.13,5.616
		c0.727,0.279,1.48,0.475,2.18,0.838c2.766,1.425,3.743,4.275,1.731,6.985c-1.369,1.816-3.269,1.76-4.526-0.084
		c-0.419-0.643-0.894-1.257-1.341-1.872c-0.056,0.028-0.14,0.084-0.195,0.14c0.643,0.978,1.257,1.928,1.816,2.766
		c-0.308,0.419-0.671,0.727-0.727,1.062c-0.057,0.447,0.14,0.894,0.224,1.425c-0.28-0.14-0.476-0.251-0.866-0.447
		c0.279,0.531,0.53,0.894,0.698,1.313c0.447,1.118-0.447,2.654-1.034,2.458c-0.14,0.503-0.195,1.062-0.475,1.425
		c-0.168,0.224-0.727,0.167-0.811,0.167c-0.447,0.503-0.811,0.95-1.229,1.481c-0.503-0.559-0.81-0.866-1.09-1.202
		c-0.056,0.028-0.083,0.056-0.14,0.084c0.168,0.307,0.308,0.643,0.476,0.978c-2.151,0.782-3.381-0.447-4.61-1.788
		c0.14,0.279,0.308,0.531,0.475,0.81c-0.111,0.084-0.224,0.167-0.335,0.251c-0.671-0.838-1.425-1.621-1.983-2.542
		c-0.42-0.671-0.671-1.146-1.593-0.811c-0.252,0.084-0.811-0.279-1.034-0.586c-0.727-1.006-1.396-2.068-2.067-3.129
		c-0.084,0.056-0.195,0.112-0.279,0.167c0.754,1.202,1.509,2.403,2.263,3.604C119.246,361.801,119.162,361.969,119.106,362.192z"/>
	<path fill="#FFFFFF" d="M136.848,348.138c2.878,0.223,4.415,3.38,3.018,6.203C140.285,351.603,139.028,349.703,136.848,348.138z"/>
	<path fill="#FFFFFF" d="M114.16,343.556c-0.419,1.09-0.922,2.375-1.341,3.521C112.345,345.595,112.988,344.031,114.16,343.556z"/>
	<path fill="#FFFFFF" d="M111.339,355.822c0.251,1.397,0.475,2.598,0.726,3.939C111.059,358.56,110.78,357.358,111.339,355.822z"/>
	<path fill="#FFFFFF" d="M124.219,343.388c0.503-1.425,1.537-2.151,3.13-2.096C126.259,342.019,125.198,342.718,124.219,343.388z"/>
	<path d="M218.854,320.924c-1.537-2.04-3.046-4.079-4.582-6.119c0.14-0.084,0.279-0.196,0.419-0.28
		c1.369,2.152,2.766,4.275,4.135,6.427L218.854,320.924z"/>
	<path d="M215.249,320.952c-1.341-1.9-2.71-3.772-4.052-5.672c0.112-0.084,0.196-0.14,0.308-0.224
		c1.341,1.9,2.683,3.772,4.052,5.672C215.445,320.784,215.333,320.868,215.249,320.952z"/>
	<path d="M140.005,334.335c-1.229-1.956-2.486-3.912-3.743-5.868c0.167-0.083,0.307-0.167,0.446-0.251
		C137.798,330.256,138.916,332.296,140.005,334.335C140.005,334.335,140.033,334.335,140.005,334.335z"/>
</g>
</svg>
