<?xml version="1.0" encoding="utf-8"?>
<!-- Generator: Adobe Illustrator 16.0.0, SVG Export Plug-In . SVG Version: 6.00 Build 0)  -->
<!DOCTYPE svg PUBLIC "-//W3C//DTD SVG 1.1//EN" "http://www.w3.org/Graphics/SVG/1.1/DTD/svg11.dtd">
<svg version="1.1" id="图层_1" xmlns="http://www.w3.org/2000/svg" xmlns:xlink="http://www.w3.org/1999/xlink" x="0px" y="0px"
	 width="595.279px" height="841.89px" viewBox="0 0 595.279 841.89" enable-background="new 0 0 595.279 841.89"
	 xml:space="preserve">
<g>
	
		<image overflow="visible" opacity="0.75" width="596" height="428" xlink:href="A92D977.png"  transform="matrix(1 0 0 1 8.6316 181.437)">
	</image>
	<g>
		<g>
			<path fill="#8DB7B5" d="M575.539,417.162c0.83,51.366-11.651,107.786-55.391,131.223c-75.384,40.413-251.625,27.204-336.87,26.64
				c-25.781-0.174-75.852-6.398-97.773-18.769C39.486,530.308,20.573,479.8,19.727,427.219
				c-2.072-128.397,120.256-234.595,273.454-237.36C447.772,185.842,573.48,288.757,575.539,417.162z"/>
			<path fill="none" stroke="#538583" stroke-width="4" stroke-miterlimit="10" d="M575.539,417.162
				c0.83,51.366-11.651,107.786-55.391,131.223c-75.384,40.413-251.625,27.204-336.87,26.64
				c-25.781-0.174-75.852-6.398-97.773-18.769C39.486,530.308,20.573,479.8,19.727,427.219
				c-2.072-128.397,120.256-234.595,273.454-237.36C447.772,185.842,573.48,288.757,575.539,417.162z"/>
		</g>
	</g>
</g>
<g>
	
		<image overflow="visible" opacity="0.75" width="62" height="151" xlink:href="A92D975.png"  transform="matrix(1 0 0 1 79.6316 318.437)">
	</image>
	<g>
		<g>
			<path fill="#060001" d="M102.279,331.606c-1.98,0.512-4.195,7.792-5.167,17.471c-0.984,9.674-0.199,18.057,1.718,18.281
				c1.905,0.228,4.328-7.776,5.31-17.451c0.991-9.679,0.192-18.056-1.708-18.281L102.279,331.606l4.992-6.949
				c6.303,0.745,8.664,27.383,5.508,58.645c-3.156,31.263-10.901,56.712-17.055,55.995c-6.158-0.723-8.662-27.383-5.5-58.645
				c3.132-31.263,10.893-56.717,17.044-55.994"/>
		</g>
	</g>
</g>
<g>
	
		<image overflow="visible" opacity="0.75" width="63" height="148" xlink:href="A92D97B.png"  transform="matrix(1 0 0 1 149.6316 321.437)">
	</image>
	<g>
		<g>
			<path fill="#060001" d="M171.638,335.293c-2.216,0.903-4.517,8.297-5.372,17.755c-0.838,9.455,0.262,17.312,2.417,17.14
				c2.144-0.171,4.681-8.309,5.512-17.762c0.86-9.452-0.251-17.313-2.405-17.139L171.638,335.293l5.438-7.646
				c7.111-0.559,10.449,24.452,7.728,55c-2.721,30.535-10.792,56.443-17.737,56.996c-6.93,0.531-10.435-24.467-7.717-54.999
				c2.725-30.544,10.787-56.453,17.725-56.997"/>
		</g>
	</g>
</g>
<g>
	
		<image overflow="visible" opacity="0.75" width="45" height="65" xlink:href="A92D97D.png"  transform="matrix(1 0 0 1 63.6316 546.437)">
	</image>
	<g>
		<g>
			<g>
				<g opacity="0.75">
					<path fill="#9F95A2" d="M81.52,581.587L81.52,581.587L81.52,581.587z"/>
				</g>
				<g>
					<path fill="#C5C27B" d="M72.5,552.662L72.5,552.662L72.5,552.662z"/>
				</g>
			</g>
		</g>
	</g>
</g>
<g>
	
		<image overflow="visible" opacity="0.75" width="45" height="65" xlink:href="A92D97F.png"  transform="matrix(1 0 0 1 63.6316 546.437)">
	</image>
	<g>
		<g>
			<g>
				<g opacity="0.75">
					<path fill="#9F95A2" d="M81.52,581.587L81.52,581.587L81.52,581.587z"/>
				</g>
				<g>
					<path fill="#C5C27B" d="M72.5,552.662L72.5,552.662L72.5,552.662z"/>
				</g>
			</g>
		</g>
	</g>
</g>
</svg>
