<?xml version="1.0" encoding="utf-8"?>
<!-- Generator: Adobe Illustrator 16.0.0, SVG Export Plug-In . SVG Version: 6.00 Build 0)  -->
<!DOCTYPE svg PUBLIC "-//W3C//DTD SVG 1.1//EN" "http://www.w3.org/Graphics/SVG/1.1/DTD/svg11.dtd">
<svg version="1.1" id="图层_1" xmlns="http://www.w3.org/2000/svg" xmlns:xlink="http://www.w3.org/1999/xlink" x="0px" y="0px"
	 width="595.279px" height="841.89px" viewBox="0 0 595.279 841.89" enable-background="new 0 0 595.279 841.89"
	 xml:space="preserve">
<path fill="#D0CD7E" stroke="#595308" stroke-width="4" stroke-miterlimit="10" d="M393.451,431.822
	c0.313,18.338-4.413,38.484-20.982,46.855c-28.556,14.428-95.317,9.713-127.606,9.514c-9.766-0.063-28.729-2.285-37.036-6.701
	c-17.432-9.268-24.598-27.299-24.918-46.072c-0.783-45.848,45.554-83.764,103.586-84.751
	C345.052,349.227,392.672,385.974,393.451,431.822z"/>
<path d="M219.578,396.838c-0.85,0.167-1.802,2.522-2.22,5.654c-0.419,3.132-0.082,5.844,0.738,5.917
	c0.818,0.073,1.864-2.517,2.282-5.647c0.425-3.132,0.082-5.843-0.735-5.917L219.578,396.838l2.149-2.247
	c2.71,0.24,3.721,8.861,2.368,18.981c-1.354,10.119-4.685,18.354-7.33,18.121c-2.646-0.232-3.722-8.861-2.366-18.981
	c1.351-10.118,4.682-18.356,7.328-18.122"/>
<path d="M249.387,398.032c-0.952,0.29-1.94,2.686-2.304,5.746c-0.361,3.059,0.111,5.603,1.034,5.547
	c0.922-0.055,2.013-2.689,2.372-5.749c0.366-3.061-0.107-5.603-1.033-5.547L249.387,398.032l2.338-2.476
	c3.057-0.181,4.49,7.915,3.32,17.8c-1.173,9.886-4.638,18.271-7.622,18.448c-2.979,0.172-4.488-7.918-3.316-17.801
	c1.172-9.886,4.635-18.271,7.617-18.447"/>
<path fill="#D0CD7E" d="M211.385,493.273L211.385,493.273L211.385,493.273z"/>
<path fill="#D0CD7E" d="M211.385,493.273L211.385,493.273L211.385,493.273z"/>
<path fill="#D0CD7E" d="M211.385,350.625L211.385,350.625L211.385,350.625z"/>
<path fill="#D0CD7E" d="M211.385,350.625L211.385,350.625L211.385,350.625z"/>
</svg>
