<?xml version="1.0" encoding="utf-8"?>
<!-- Generator: Adobe Illustrator 16.0.0, SVG Export Plug-In . SVG Version: 6.00 Build 0)  -->
<!DOCTYPE svg PUBLIC "-//W3C//DTD SVG 1.1//EN" "http://www.w3.org/Graphics/SVG/1.1/DTD/svg11.dtd">
<svg version="1.1" id="图层_1" xmlns="http://www.w3.org/2000/svg" xmlns:xlink="http://www.w3.org/1999/xlink" x="0px" y="0px"
	 width="595.279px" height="841.89px" viewBox="0 0 595.279 841.89" enable-background="new 0 0 595.279 841.89"
	 xml:space="preserve">
<path fill="#D0CD7E" stroke="#595308" stroke-width="4" stroke-miterlimit="10" d="M576.454,466.951
	c0.829,52.02-11.688,109.168-55.571,132.915c-75.635,40.927-252.459,27.551-337.979,26.987
	c-25.866-0.177-76.093-6.483-98.094-19.009c-46.169-26.289-65.15-77.439-65.998-130.692
	c-2.074-130.055,120.654-237.611,274.358-240.411C448.266,232.655,574.392,336.896,576.454,466.951z"/>
<path d="M115.932,367.712c-2.249,0.474-4.771,7.154-5.879,16.04c-1.109,8.884-0.218,16.577,1.956,16.785
	c2.166,0.205,4.935-7.142,6.042-16.018c1.127-8.886,0.217-16.576-1.945-16.786L115.932,367.712l5.694-6.374
	c7.177,0.681,9.855,25.137,6.272,53.844c-3.587,28.705-12.41,52.063-19.414,51.402c-7.009-0.658-9.86-25.137-6.267-53.841
	c3.578-28.704,12.4-52.071,19.409-51.407"/>
<path d="M194.886,371.101c-2.522,0.822-5.14,7.618-6.104,16.297c-0.954,8.678,0.296,15.895,2.739,15.737
	c2.442-0.156,5.331-7.626,6.282-16.308c0.97-8.683-0.285-15.894-2.737-15.736L194.886,371.101l6.192-7.024
	c8.097-0.513,11.891,22.453,8.791,50.492c-3.106,28.043-12.283,51.827-20.187,52.332c-7.889,0.487-11.885-22.46-8.782-50.497
	c3.104-28.042,12.276-51.829,20.175-52.328"/>
<path fill="#D0CD7E" d="M94.232,641.269L94.232,641.269L94.232,641.269z"/>
<path fill="#D0CD7E" d="M94.232,641.269L94.232,641.269L94.232,641.269z"/>
<path fill="#D0CD7E" d="M94.232,236.621L94.232,236.621L94.232,236.621z"/>
<path fill="#D0CD7E" d="M94.232,236.621L94.232,236.621L94.232,236.621z"/>
</svg>
